<svg width="35" height="47" viewBox="0 0 35 47" fill="none" xmlns="http://www.w3.org/2000/svg">
<path d="M27.8767 30.8128C28.3489 31.8738 28.8079 32.896 29.2538 33.9053C30.526 36.7518 31.8113 39.6114 33.0834 42.458C33.0965 42.4838 33.1097 42.5097 33.1228 42.5485C33.2802 42.8849 33.3982 43.2214 33.0834 43.5319C32.7687 43.8424 32.4277 43.726 32.0867 43.5707C30.5784 42.8849 29.0833 42.2121 27.5751 41.5393C27.4177 41.4616 27.2472 41.397 27.0505 41.3193C26.5783 42.458 26.1193 43.5578 25.6602 44.6576C25.4242 45.2398 25.175 45.8221 24.9389 46.4044C24.8078 46.7149 24.6504 46.9866 24.2569 46.9996C23.8372 47.0125 23.6667 46.7408 23.5094 46.4044C21.6732 42.2768 19.824 38.1622 17.9879 34.0346C17.9223 33.9053 17.883 33.7629 17.8043 33.6335C17.6469 33.3618 17.3584 33.3489 17.201 33.6206C17.1223 33.737 17.0698 33.8794 17.0174 34.0217C15.2075 38.0846 13.3845 42.1474 11.5746 46.2103C11.5352 46.2879 11.509 46.3526 11.4697 46.4302C11.3385 46.7408 11.1549 46.9996 10.7614 46.9996C10.368 46.9996 10.1844 46.7408 10.0663 46.4173C9.72534 45.5763 9.38434 44.7352 9.03023 43.9071C8.67613 43.0532 8.32202 42.2121 7.94168 41.3064C7.31215 41.591 6.70885 41.8628 6.10556 42.1345C5.03011 42.6132 3.95467 43.092 2.89234 43.5837C2.56447 43.726 2.23659 43.8295 1.93494 43.5448C1.60706 43.2472 1.7251 42.9108 1.86936 42.5615C3.5481 38.8091 5.22684 35.0568 6.90558 31.3045C6.97116 31.1622 7.03673 31.0069 7.11542 30.8128C6.87935 30.7611 6.68262 30.7222 6.4859 30.6834C5.05634 30.4246 4.19074 29.5965 3.92844 28.1733C3.82352 27.6169 3.73171 27.0605 3.66614 26.5041C3.5481 25.5725 3.03661 24.8997 2.30216 24.3562C1.8169 23.9939 1.34476 23.6187 0.911956 23.2047C0.0725863 22.4024 -0.189717 21.432 0.164392 20.3193C0.334889 19.8017 0.531617 19.2841 0.754574 18.7795C1.2136 17.7703 1.20049 16.7869 0.754574 15.7777C0.492271 15.1695 0.269314 14.5484 0.0988167 13.9015C-0.150371 13.0863 0.0857015 12.31 0.649653 11.663C0.964417 11.3137 1.2923 10.9514 1.68575 10.7056C3.12842 9.85158 3.78417 8.59649 3.82352 6.96617C3.82352 6.83678 3.86287 6.70739 3.8891 6.578C4.25632 4.83123 5.09569 4.05489 6.87935 3.80905C7.20723 3.77023 7.52199 3.71847 7.84987 3.6926C8.93843 3.58908 9.79091 3.08446 10.4204 2.19167C10.709 1.76468 11.0631 1.36357 11.4172 0.988336C12.2828 0.0696644 13.332 -0.202055 14.5517 0.199055C15.037 0.354323 15.5091 0.522531 15.9682 0.729555C16.9911 1.18242 17.9748 1.18242 19.0109 0.742494C19.601 0.483714 20.2306 0.26375 20.8601 0.0955425C21.7388 -0.13736 22.5651 0.0567254 23.2339 0.66486C23.7061 1.10479 24.1651 1.58353 24.5323 2.11403C25.2406 3.13622 26.198 3.6279 27.4177 3.70553C27.7324 3.71847 28.0341 3.77023 28.3357 3.83492C30.1063 4.17134 30.8801 4.99944 31.1555 6.83678C31.208 7.16026 31.2473 7.47079 31.2735 7.79427C31.3785 8.84233 31.8768 9.64455 32.7424 10.2527C33.2408 10.602 33.7261 11.0032 34.172 11.4431C34.9589 12.2194 35.1818 13.164 34.854 14.212C34.6966 14.7296 34.4999 15.2601 34.2769 15.7518C33.8048 16.774 33.8048 17.7703 34.2769 18.7925C34.4999 19.2712 34.6835 19.7758 34.8409 20.2804C35.2081 21.4061 34.9327 22.3895 34.0802 23.2047C33.6605 23.6058 33.2015 23.981 32.7162 24.3174C31.8113 24.9514 31.3522 25.8054 31.2604 26.8923C31.2211 27.3063 31.1555 27.7204 31.0637 28.1344C30.762 29.6224 29.9882 30.3858 28.48 30.6834C28.2964 30.7352 28.1128 30.774 27.8767 30.8128ZM21.4896 33.2842C21.7913 33.1418 22.1454 33.0642 22.3815 32.8572C22.7618 32.5337 23.1028 32.1455 23.3913 31.7315C24.375 30.2953 25.7389 29.6483 27.4833 29.506C29.2669 29.3636 29.5423 28.9237 29.8702 27.4616C29.8964 27.3322 29.8964 27.2028 29.8964 27.0734C29.9751 25.4561 30.6047 24.1492 31.9949 23.2176C32.4014 22.9459 32.7687 22.6224 33.1359 22.286C33.5556 21.9108 33.7392 21.445 33.5818 20.8886C33.4506 20.4228 33.3195 19.957 33.1228 19.517C32.5326 18.262 32.3621 16.981 32.8867 15.6741C33.0178 15.3377 33.2015 15.0272 33.3195 14.7037C33.9097 13.0734 33.6998 12.724 32.5982 11.8313C32.4801 11.7407 32.3752 11.6372 32.2441 11.5595C30.6702 10.5762 29.962 9.15287 29.8833 7.3414C29.8309 6.02162 29.2013 5.36173 27.9292 5.12883C27.7718 5.10295 27.6013 5.09001 27.4439 5.09001C25.975 4.99944 24.6897 4.54657 23.7586 3.34324C23.5356 3.05858 23.3258 2.77392 23.1028 2.48926C22.211 1.38945 21.8175 1.05303 19.9945 1.79056C19.7978 1.86819 19.6142 1.9717 19.4174 2.04934C18.1453 2.60572 16.8731 2.59278 15.6009 2.04934C15.3517 1.94582 15.0894 1.81643 14.8402 1.71292C13.3845 1.11773 12.8861 1.26006 11.9156 2.47633C11.8238 2.59278 11.7188 2.69629 11.6402 2.82568C10.6565 4.35249 9.21385 4.96062 7.43019 5.10295C5.72522 5.24528 5.4498 5.72402 5.13503 7.13438C5.1088 7.26377 5.1088 7.39316 5.1088 7.52255C5.03011 9.13993 4.40059 10.4468 3.01038 11.3913C2.5907 11.676 2.21036 12.0124 1.84313 12.3488C1.44968 12.6982 1.27918 13.151 1.42345 13.6686C1.5546 14.1344 1.67263 14.6131 1.88248 15.0401C2.48577 16.3082 2.6825 17.6021 2.14478 18.9348C2.01363 19.2453 1.85625 19.5559 1.7251 19.8664C1.08245 21.5485 1.34476 21.8978 2.4202 22.7777C2.57758 22.9071 2.72185 23.0235 2.89234 23.14C4.40059 24.0975 4.99077 25.5078 5.13503 27.2287C5.2793 28.8331 5.69899 29.2084 7.181 29.493C7.41707 29.5448 7.66626 29.5448 7.91545 29.5707C9.12204 29.7001 10.2106 30.0753 11.0237 31.0328C11.3778 31.4598 11.7057 31.8997 12.0598 32.3267C12.873 33.2971 13.3582 33.4265 14.5648 33.0254C14.7353 32.9736 14.9058 32.896 15.0632 32.8184C16.6764 31.9644 18.2764 31.9773 19.9027 32.7925C20.3748 32.9866 20.9126 33.0901 21.4896 33.2842ZM8.5712 30.9422C6.94493 34.5651 5.37111 38.0846 3.74483 41.7204C5.14815 41.0864 6.4072 40.5171 7.66626 39.9478C8.51874 39.5596 8.7417 39.6502 9.0827 40.4912C9.59419 41.7334 10.1057 42.9755 10.6303 44.2047C10.6696 44.3082 10.7352 44.4117 10.827 44.58C12.4008 41.0476 13.9484 37.6058 15.5222 34.0735C15.1944 34.177 14.9714 34.2805 14.7353 34.3193C14.2107 34.3969 13.673 34.5393 13.1484 34.5004C12.191 34.4357 11.5746 33.7759 10.9975 33.103C10.5778 32.6113 10.1975 32.0679 9.72534 31.628C9.41057 31.3433 8.99089 31.1881 8.5712 30.9422ZM24.2176 44.6317C24.7815 43.2731 25.293 42.031 25.8045 40.7888C26.316 39.5467 26.3816 39.5208 27.6275 40.0901C28.7948 40.6206 29.962 41.1382 31.2604 41.7204C29.6341 38.0716 28.0603 34.5522 26.4865 31.0457C25.6209 31.1622 25.1488 31.7186 24.6766 32.2749C24.27 32.7666 23.8897 33.2712 23.4438 33.7241C22.67 34.5004 21.7126 34.7204 20.6371 34.4228C20.283 34.3193 19.942 34.2158 19.4961 34.0735C21.0831 37.6188 22.6175 41.0735 24.2176 44.6317Z" fill="#BE2528"/>
<path d="M17.5157 5.84048C23.9553 5.85342 29.1358 10.9902 29.1095 17.3303C29.0833 23.6575 23.8504 28.7814 17.437 28.7555C11.0237 28.7296 5.86948 23.554 5.89571 17.201C5.92194 10.9255 11.1418 5.82754 17.5157 5.84048ZM17.5551 7.18614C11.9287 7.16026 7.29903 11.6372 7.25969 17.1492C7.22034 22.8553 11.7451 27.371 17.5157 27.3969C23.129 27.4228 27.7062 22.8941 27.7456 17.3045C27.7849 11.7666 23.1946 7.21201 17.5551 7.18614Z" fill="#BE2528"/>
<path d="M21.9093 22.5577C21.9224 23.127 21.3847 23.4246 20.8339 23.1529C19.9027 22.6871 18.9715 22.2213 18.0535 21.7037C17.6469 21.4708 17.3321 21.4967 16.9387 21.7167C16.0862 22.1954 15.2206 22.6483 14.3288 23.0623C14.0665 23.1788 13.6861 23.2305 13.4238 23.127C13.0566 22.9847 13.0959 22.5965 13.1615 22.2342C13.3582 21.1862 13.5418 20.1381 13.6861 19.0771C13.7123 18.896 13.6337 18.6372 13.5025 18.5078C12.7418 17.7315 11.9156 17.0069 11.168 16.2176C10.9844 16.0235 10.8401 15.6871 10.8664 15.4283C10.8926 15.0531 11.2729 14.9625 11.6008 14.9107C12.6238 14.7684 13.6468 14.6131 14.6697 14.4967C15.0501 14.4579 15.273 14.3155 15.4435 13.9533C15.8501 13.0605 16.3223 12.1806 16.7551 11.3007C16.9124 10.9643 17.0961 10.6667 17.5289 10.6667C17.9354 10.6667 18.119 10.9643 18.2764 11.2749C18.7223 12.1806 19.1814 13.0605 19.6142 13.9662C19.7584 14.2767 19.9552 14.432 20.2962 14.4708C21.306 14.5873 22.3028 14.7425 23.3126 14.8849C23.6799 14.9366 24.0471 14.9754 24.1914 15.3895C24.3225 15.8035 24.0602 16.0494 23.7979 16.3082C23.0372 17.0327 22.2634 17.7703 21.5159 18.5078C21.3978 18.6242 21.3191 18.8701 21.3454 19.0383C21.5027 20.2287 21.7126 21.3932 21.9093 22.5577ZM20.3224 21.3673C20.165 20.4745 20.047 19.7111 19.9027 18.9477C19.8109 18.4949 19.9027 18.1455 20.2568 17.822C20.847 17.2786 21.3978 16.6834 21.988 16.0753C21.2929 15.9717 20.6371 15.8035 19.9814 15.7906C19.1551 15.7647 18.7092 15.3895 18.4207 14.652C18.1846 14.0438 17.8436 13.4874 17.5157 12.8146C17.1223 13.6039 16.7419 14.2638 16.4534 14.9625C16.2305 15.4801 15.8763 15.7 15.3386 15.7518C14.5779 15.8294 13.8304 15.9588 13.0697 16.0753C13.6074 16.6316 14.0927 17.201 14.6435 17.6926C15.1025 18.0937 15.2468 18.5078 15.1025 19.103C14.9321 19.8146 14.8534 20.5392 14.7091 21.3673C15.5485 20.9403 16.2698 20.578 16.9911 20.1899C17.3584 19.9828 17.6862 19.9828 18.0535 20.1899C18.7486 20.578 19.483 20.9403 20.3224 21.3673Z" fill="#BE2528"/>
</svg>
