<svg width="19" height="22" viewBox="0 0 19 22" fill="none" xmlns="http://www.w3.org/2000/svg">
<path d="M1.10271 22C1.01919 21.9656 0.935658 21.937 0.85213 21.9026C0.328688 21.6908 0.00571238 21.1983 0.00571238 20.5741C0.000143843 19.6063 0.00571238 18.6442 0.00571238 17.6764C0.00571238 16.7487 0.00571238 15.8153 0.00571238 14.8876C0.00571238 14.8074 0.000143843 14.7273 0.0168495 14.6528C0.0446922 14.5039 0.139357 14.4123 0.284139 14.4009C0.440058 14.3837 0.556998 14.4581 0.601546 14.6127C0.62382 14.6986 0.629389 14.796 0.629389 14.8876C0.629389 16.5197 0.629389 18.1518 0.629389 19.7838C0.629389 19.8697 0.629389 19.9499 0.629389 20.0759C2.89578 18.7874 5.12877 17.5276 7.38959 16.2505C5.16218 13.9427 2.9459 11.6578 0.735191 9.37294C0.707348 9.38439 0.685074 9.39585 0.657231 9.41303C0.646094 9.52756 0.629389 9.64209 0.629389 9.75662C0.629389 10.879 0.629389 12.0014 0.629389 13.1296C0.629389 13.4732 0.523587 13.6335 0.306413 13.6278C0.094809 13.622 0.00571238 13.4789 0.00571238 13.1353C0.00571238 12.0129 0.0112809 10.8905 0.000143843 9.76235C-0.0054247 9.27559 0.150494 8.87473 0.501312 8.53686C0.85213 8.199 1.19181 7.84968 1.52592 7.49463C1.58718 7.42591 1.63729 7.31138 1.63729 7.21976C1.64843 6.34932 1.64286 5.47316 1.64286 4.60272C1.64286 3.72083 2.21085 3.14245 3.06841 3.13672C3.92596 3.13099 4.77795 3.13099 5.63551 3.13672C5.78586 3.13672 5.89166 3.09664 6.00303 2.98783C6.8216 2.15175 7.65132 1.3214 8.47546 0.485326C9.11584 -0.161775 9.8843 -0.161775 10.5247 0.485326C11.3488 1.31568 12.173 2.14603 12.9971 2.98783C13.1029 3.09664 13.2143 3.14245 13.3646 3.13672C14.2111 3.13099 15.063 3.13099 15.9095 3.13672C16.8004 3.13672 17.3573 3.70938 17.3573 4.6199C17.3573 4.83178 17.3629 5.04939 17.3573 5.26127C17.3517 5.46743 17.2403 5.59914 17.0621 5.60487C16.8784 5.61059 16.7447 5.47888 16.7392 5.267C16.7336 5.03794 16.7392 4.80888 16.7336 4.57981C16.728 4.0816 16.444 3.7781 15.954 3.7781C14.1053 3.7781 12.2509 3.7781 10.4022 3.7781C7.98543 3.7781 5.57425 3.7781 3.15751 3.7781C2.5394 3.7781 2.27768 4.04152 2.27768 4.67144C2.27768 6.41231 2.27768 8.14746 2.27211 9.88833C2.27211 10.0258 2.31109 10.1288 2.40575 10.2262C4.21553 12.0816 6.0253 13.937 7.82951 15.7924C7.93531 15.9012 8.0077 15.9069 8.13021 15.8325C8.37523 15.6836 8.62581 15.5404 8.88196 15.4087C9.2829 15.1968 9.69497 15.1854 10.1015 15.3973C10.3743 15.5404 10.6416 15.6893 10.9089 15.8497C11.0147 15.9127 11.076 15.9012 11.1595 15.8153C12.986 13.937 14.8125 12.0644 16.6389 10.1804C16.7002 10.1174 16.7336 9.99141 16.7336 9.89406C16.7392 8.85755 16.7392 7.82104 16.7392 6.77881C16.7392 6.69291 16.7447 6.60701 16.7726 6.52684C16.8283 6.38368 16.9396 6.32069 17.09 6.33787C17.2459 6.35505 17.3461 6.45812 17.3573 6.61847C17.3684 6.81317 17.3461 7.00787 17.3684 7.19685C17.3796 7.29993 17.4185 7.42019 17.4854 7.4889C17.8306 7.8554 18.1814 8.21045 18.5378 8.55977C18.8496 8.869 19 9.24123 19 9.69363C18.9944 13.3014 19 16.9091 19 20.5168C19 21.267 18.6547 21.7309 17.9531 21.9485C17.9364 21.9542 17.9197 21.9714 17.903 21.9828C16.6668 21.9828 15.425 21.9828 14.1888 21.9828C14.0384 21.8855 13.9271 21.7538 13.9939 21.5591C14.0607 21.3644 14.2222 21.3243 14.4004 21.3414C14.4561 21.3472 14.5118 21.3414 14.5674 21.3414C15.5809 21.3414 16.6 21.3414 17.6134 21.3414C18.0088 21.3414 18.2761 21.1238 18.3318 20.7745C18.3039 20.7573 18.2761 20.7344 18.2482 20.7173C15.4695 19.1482 12.6908 17.5791 9.91771 16.01C9.63372 15.8497 9.37199 15.8611 9.088 16.0215C6.70466 17.3729 4.31576 18.7244 1.92686 20.0701C1.50922 20.3049 1.09158 20.5455 0.673937 20.7802C0.790876 21.1754 1.03032 21.3414 1.47024 21.3414C5.25128 21.3414 9.02674 21.3414 12.8078 21.3414C12.986 21.3414 13.1475 21.3644 13.2143 21.5648C13.2811 21.7652 13.1697 21.8912 13.0194 21.9885C9.03788 22 5.07308 22 1.10271 22ZM11.6662 16.2849C13.8769 17.5333 16.0988 18.7931 18.3318 20.053C18.4097 19.6865 18.3763 9.56764 18.2984 9.41875C16.0932 11.7036 13.8825 13.9885 11.6662 16.2849ZM12.2064 3.13099C12.1841 3.08518 12.1785 3.06228 12.1618 3.05082C11.4435 2.32355 10.7252 1.59055 10.0012 0.874732C9.6894 0.565497 9.28847 0.576951 8.97663 0.891911C8.28613 1.58482 7.59563 2.28346 6.90513 2.9821C6.86615 3.02219 6.83274 3.068 6.78262 3.13672C8.60911 3.13099 10.391 3.13099 12.2064 3.13099ZM1.63173 9.4073C1.63173 9.03507 1.63173 8.69148 1.63173 8.35934C1.4591 8.53686 1.28648 8.70866 1.14726 8.85182C1.29204 9.02362 1.45353 9.20687 1.63173 9.4073ZM17.864 8.89764C17.697 8.71439 17.5243 8.53686 17.3684 8.37079C17.3684 8.69721 17.3684 9.0408 17.3684 9.40157C17.5577 9.2126 17.7248 9.0408 17.864 8.89764Z" fill="white"/>
<path d="M10.2741 10.2606C9.2829 11.1482 8.10237 10.398 7.91304 9.19542C7.8128 8.57122 7.92974 7.99857 8.37523 7.52899C8.83741 7.04223 9.4778 6.95061 10.0569 7.2713C10.0848 7.28847 10.1182 7.29993 10.1572 7.31711C10.1627 7.25984 10.1683 7.21976 10.1739 7.17967C10.2128 6.97351 10.3298 6.86471 10.5135 6.87616C10.6917 6.88762 10.7975 7.0136 10.7975 7.23121C10.7975 8.0272 10.7975 8.81747 10.792 9.61346C10.792 9.81961 10.792 10.0429 11.0091 10.1231C11.2319 10.209 11.4379 10.1117 11.5938 9.93987C11.8945 9.59628 11.9781 9.16679 11.9948 8.72584C12.0449 7.68361 11.2653 6.67001 10.2128 6.36077C8.79844 5.94846 7.33948 6.85326 7.03878 8.32498C6.73251 9.81389 7.73484 11.2455 9.21608 11.4402C9.2829 11.4517 9.35529 11.4574 9.42211 11.4631C9.63372 11.486 9.75622 11.6178 9.74509 11.8067C9.73395 12.0014 9.5836 12.1217 9.36086 12.1045C8.72604 12.0644 8.15248 11.8525 7.64018 11.4689C6.54875 10.6442 6.09769 9.17824 6.5209 7.8554C6.95525 6.50966 8.14692 5.62205 9.52235 5.62205C10.8811 5.62205 12.095 6.52112 12.5071 7.84395C12.7521 8.62276 12.6352 9.37294 12.2676 10.083C12.0449 10.5068 11.6885 10.7473 11.2152 10.7931C10.792 10.8275 10.4968 10.6213 10.2741 10.2606ZM10.1906 8.81174C10.1516 8.63422 10.1349 8.44524 10.0736 8.27344C9.97896 7.99857 9.80634 7.78668 9.50564 7.73515C9.18266 7.68361 8.93765 7.81532 8.74275 8.07301C8.38636 8.53686 8.44205 9.35576 8.85412 9.7738C9.1771 10.1059 9.60031 10.083 9.88987 9.71653C10.0903 9.45884 10.1683 9.14961 10.1906 8.81174Z" fill="white"/>
</svg>
