<svg width="16" height="16" viewBox="0 0 16 16" fill="none" xmlns="http://www.w3.org/2000/svg">
<path d="M0 4.40379C0.0253642 4.21802 0.0380463 4.03224 0.0718653 3.85069C0.16064 3.3947 0.363554 2.99359 0.689061 2.66426C1.12025 2.22516 1.53453 1.76916 1.99532 1.36384C2.70552 0.751624 3.47067 0.755846 4.14705 1.38917C4.86993 2.06472 5.56322 2.77404 6.23537 3.50025C6.73843 4.03646 6.7342 4.85978 6.24805 5.41289C5.88872 5.82244 5.49135 6.20243 5.10243 6.58665C5.03057 6.65842 5.00943 6.70909 5.06016 6.81042C5.44908 7.59574 5.99441 8.26285 6.59047 8.89195C7.19921 9.54216 7.86713 10.1206 8.6196 10.5977C8.8352 10.7328 9.06348 10.8468 9.30021 10.9819C9.55808 10.7201 9.8075 10.4626 10.0611 10.2135C10.2302 10.0446 10.4036 9.87571 10.5853 9.72371C11.1307 9.27194 11.955 9.2635 12.4665 9.74905C13.2148 10.4584 13.9419 11.1888 14.6521 11.9403C15.1763 12.4977 15.1847 13.3379 14.6774 13.9079C14.2082 14.4356 13.7136 14.9507 13.1894 15.4236C12.6441 15.9176 11.9592 16.0485 11.2321 15.9852C9.87513 15.8712 8.67033 15.3223 7.50358 14.6763C6.0705 13.8825 4.79384 12.8819 3.67781 11.6828C2.31237 10.2177 1.18366 8.60062 0.477693 6.71331C0.236733 6.07577 0.0465011 5.42133 0.0211368 4.7289C0.0211368 4.69512 0.00845474 4.65712 0 4.62334C0 4.55157 0 4.47979 0 4.40379ZM11.4435 15.0943C12.0311 15.0985 12.4581 14.9254 12.8089 14.5539C13.1302 14.2161 13.4642 13.8825 13.7939 13.549C13.8573 13.4857 13.9165 13.4223 13.9715 13.3505C14.187 13.0719 14.1786 12.7806 13.9545 12.5103C13.8996 12.447 13.8446 12.3879 13.7854 12.3288C13.4261 11.9657 13.0626 11.6068 12.7032 11.2479C12.4581 11.003 12.2129 10.7497 11.9592 10.509C11.6802 10.243 11.3716 10.2388 11.0799 10.4879C11.025 10.5344 10.9742 10.5893 10.9193 10.6399C10.56 10.9946 10.2049 11.3577 9.84554 11.7081C9.58767 11.9615 9.30021 12.0079 8.98739 11.8475C8.76756 11.7377 8.55197 11.6279 8.3406 11.5012C7.39789 10.9397 6.57779 10.2261 5.83377 9.42394C5.17853 8.71462 4.58247 7.95885 4.17664 7.0722C3.96527 6.60354 4.01177 6.37132 4.37955 6.01243C4.75579 5.64511 5.13625 5.282 5.49981 4.89778C5.76613 4.6149 5.75768 4.32779 5.51249 4.03224C5.47444 3.9858 5.42794 3.93935 5.38567 3.89291C4.79806 3.30181 4.20623 2.71071 3.61863 2.12383C3.23816 1.74383 2.9042 1.73961 2.52374 2.11538C2.16441 2.47004 1.79663 2.82048 1.45421 3.19203C1.28935 3.37358 1.13716 3.58469 1.04839 3.80847C0.858156 4.28979 0.913112 4.79223 1.01457 5.28622C1.17098 6.04621 1.45844 6.75976 1.80086 7.45219C2.40537 8.67239 3.19166 9.77438 4.10055 10.7835C5.70695 12.5652 7.60926 13.9248 9.86668 14.765C10.3993 14.9592 10.9531 15.0732 11.4435 15.0943Z" fill="#BE2528"/>
<path d="M8.91552 7.94147e-05C9.11421 0.042301 9.35517 0.0845226 9.5919 0.143633C12.086 0.806512 13.9334 2.28849 15.1551 4.54735C15.5694 5.31578 15.8357 6.14332 15.9879 7.00464C16.0429 7.30019 15.9076 7.51552 15.6413 7.57041C15.3918 7.62108 15.1805 7.4733 15.1002 7.19464C14.9522 6.67954 14.8423 6.15177 14.6521 5.65355C14.1828 4.4249 13.4134 3.40736 12.4073 2.56715C11.5365 1.84516 10.5557 1.33428 9.46085 1.04717C9.22835 0.988065 8.99161 0.945843 8.75911 0.886733C8.51392 0.8234 8.37442 0.603848 8.41246 0.367407C8.45474 0.160521 8.65342 -0.00414274 8.91552 7.94147e-05Z" fill="#BE2528"/>
<path d="M8.28987 3.3567C8.28987 3.06537 8.54351 2.85426 8.83943 2.90915C10.3993 3.2047 11.5957 4.03646 12.4327 5.37911C12.7667 5.91955 12.978 6.51065 13.0964 7.13553C13.1471 7.40575 13.0161 7.64219 12.7667 7.70552C12.5257 7.76885 12.289 7.61686 12.2086 7.35086C12.1072 7.00886 12.0353 6.64998 11.8874 6.32487C11.2575 4.95267 10.1922 4.11668 8.71261 3.80847C8.4336 3.7578 8.28564 3.59736 8.28987 3.3567Z" fill="#BE2528"/>
</svg>
