<svg width="21" height="21" viewBox="0 0 21 21" fill="none" xmlns="http://www.w3.org/2000/svg">
<path d="M0 5.77998C0.0332905 5.53615 0.0499358 5.29232 0.0943232 5.05403C0.21084 4.45554 0.477164 3.92909 0.904393 3.49684C1.47033 2.92052 2.01408 2.32203 2.61885 1.79004C3.55099 0.986506 4.55525 0.992048 5.443 1.82329C6.39178 2.70994 7.30172 3.64093 8.18392 4.59408C8.84418 5.29786 8.83863 6.37847 8.20057 7.10441C7.72895 7.64195 7.2074 8.14069 6.69694 8.64498C6.60262 8.73918 6.57488 8.80568 6.64146 8.93868C7.15191 9.96941 7.86766 10.845 8.64999 11.6707C9.44896 12.5241 10.3256 13.2833 11.3132 13.9095C11.5962 14.0868 11.8958 14.2364 12.2065 14.4138C12.545 14.0702 12.8723 13.7321 13.2052 13.4052C13.4272 13.1835 13.6547 12.9619 13.8932 12.7624C14.609 12.1694 15.6909 12.1583 16.3623 12.7956C17.3444 13.7266 18.2987 14.6853 19.2308 15.6717C19.9188 16.4032 19.9299 17.506 19.2641 18.2541C18.6482 18.9468 17.9991 19.6229 17.3111 20.2435C16.5953 20.8919 15.6965 21.0637 14.7422 20.9805C12.9611 20.8309 11.3798 20.1105 9.84845 19.2626C7.96753 18.2208 6.29191 16.9075 4.82713 15.3337C3.03499 13.4107 1.55356 11.2883 0.626972 8.81122C0.310712 7.97444 0.0610326 7.1155 0.0277421 6.20668C0.0277421 6.16235 0.0110968 6.11247 0 6.06814C0 5.97393 0 5.87973 0 5.77998ZM15.0196 19.8113C15.7908 19.8168 16.3512 19.5896 16.8117 19.1019C17.2334 18.6586 17.6717 18.2208 18.1045 17.783C18.1877 17.6999 18.2654 17.6168 18.3375 17.5226C18.6205 17.1568 18.6094 16.7745 18.3153 16.4198C18.2432 16.3367 18.1711 16.2591 18.0934 16.1815C17.6218 15.705 17.1446 15.2339 16.673 14.7629C16.3512 14.4415 16.0294 14.109 15.6965 13.7931C15.3303 13.444 14.9253 13.4384 14.5424 13.7654C14.4703 13.8264 14.4037 13.8984 14.3316 13.9649C13.86 14.4304 13.3939 14.907 12.9223 15.3669C12.5838 15.6994 12.2065 15.7604 11.7959 15.5498C11.5074 15.4057 11.2245 15.2616 10.947 15.0954C9.70974 14.3583 8.63334 13.4218 7.65682 12.3689C6.79682 11.4379 6.01449 10.446 5.48184 9.28226C5.20442 8.66714 5.26545 8.36235 5.74816 7.89132C6.24197 7.4092 6.74133 6.93263 7.2185 6.42834C7.56805 6.05706 7.55695 5.68023 7.23514 5.29232C7.1852 5.23136 7.12417 5.1704 7.06869 5.10945C6.29746 4.33362 5.52068 3.5578 4.74945 2.78752C4.25009 2.28878 3.81177 2.28324 3.31241 2.77644C2.84079 3.24193 2.35808 3.70188 1.90866 4.18954C1.69227 4.42783 1.49253 4.70491 1.37601 4.99861C1.12633 5.63035 1.19846 6.2898 1.33162 6.93817C1.53691 7.93565 1.91421 8.87218 2.36363 9.781C3.15705 11.3825 4.18906 12.8289 5.38197 14.1533C7.49037 16.4919 9.98716 18.2762 12.95 19.379C13.6491 19.6339 14.376 19.7836 15.0196 19.8113Z" fill="white"/>
<path d="M11.7016 0.000104232C11.9624 0.0555201 12.2787 0.110936 12.5894 0.188518C15.8629 1.05855 18.2876 3.00364 19.8911 5.96839C20.4348 6.97696 20.7844 8.06311 20.9841 9.19359C21.0563 9.5815 20.8787 9.86412 20.5292 9.93616C20.2018 10.0027 19.9244 9.80871 19.819 9.44296C19.6248 8.76689 19.4805 8.07419 19.2308 7.42029C18.615 5.80768 17.6051 4.47216 16.2846 3.36939C15.1416 2.42178 13.8544 1.75124 12.4174 1.37442C12.1122 1.29683 11.8015 1.24142 11.4963 1.16384C11.1745 1.08071 10.9914 0.792551 11.0414 0.482222C11.0968 0.210684 11.3576 -0.00543735 11.7016 0.000104232Z" fill="white"/>
<path d="M10.8805 4.40566C10.8805 4.02329 11.2134 3.74622 11.6017 3.81826C13.6491 4.20617 15.2193 5.29786 16.3179 7.06008C16.7562 7.76941 17.0337 8.54523 17.189 9.36538C17.2556 9.72004 17.0836 10.0304 16.7562 10.1135C16.44 10.1966 16.1293 9.99712 16.0238 9.648C15.8907 9.19913 15.7964 8.7281 15.6022 8.3014C14.7754 6.50038 13.3772 5.40315 11.4353 4.99861C11.0691 4.93211 10.8749 4.72153 10.8805 4.40566Z" fill="white"/>
</svg>
