<svg width="1152" height="802" viewBox="0 0 1152 802" fill="none" xmlns="http://www.w3.org/2000/svg">
<path opacity="0.3" d="M0 802C18.9355 707.479 87.218 626.706 168.124 576.867C213.455 549.37 263.949 529.893 315.591 518.436C367.234 506.406 422.319 507.551 472.24 490.366C505.52 478.909 526.177 458.859 546.834 431.361C561.753 411.884 577.245 395.844 599.05 384.387C644.38 360.9 676.513 365.483 740.779 371.211C801.028 376.94 864.72 359.181 919.232 330.539C968.579 304.76 1001.29 270.961 1029.4 222.841C1060.39 168.993 1062.11 104.833 1099.41 54.4214C1125.23 20.05 1146.46 6.87427 1174 0V802H0Z" fill="#E7EDF6"/>
</svg>
